<?xml version="1.0" standalone="no"?>
<!DOCTYPE svg PUBLIC "-//W3C//DTD SVG 20010904//EN"
 "http://www.w3.org/TR/2001/REC-SVG-20010904/DTD/svg10.dtd">
<svg version="1.0" xmlns="http://www.w3.org/2000/svg"
 width="256.000000pt" height="256.000000pt" viewBox="0 0 256.000000 256.000000"
 preserveAspectRatio="xMidYMid meet">
<metadata>
Created by potrace 1.14, written by Peter Selinger 2001-2017
</metadata>
<g transform="translate(0.000000,256.000000) scale(0.100000,-0.100000)"
fill="#000000" stroke="none">
<path d="M970 2254 c-97 -26 -203 -102 -396 -285 -60 -57 -137 -125 -170 -151
-34 -25 -74 -63 -90 -84 -27 -35 -29 -44 -30 -128 0 -50 -4 -131 -8 -181 -9
-106 15 -363 41 -428 21 -53 53 -105 94 -152 29 -33 33 -45 45 -149 15 -130
34 -186 76 -221 32 -27 114 -55 162 -55 57 0 106 -21 155 -64 33 -30 64 -47
97 -55 212 -49 839 -37 899 18 11 11 47 35 80 54 82 49 232 175 277 235 57 74
71 121 72 242 1 96 -2 110 -28 167 -27 59 -32 64 -83 83 -29 11 -77 20 -105
20 l-51 0 6 -81 7 -81 -53 -75 c-28 -41 -53 -68 -56 -61 -7 23 -64 78 -82 78
-16 0 -17 -9 -12 -87 3 -49 10 -93 14 -99 6 -7 4 -16 -4 -22 -10 -8 -13 -6
-14 9 -2 26 -45 101 -60 107 -9 2 -13 -11 -13 -47 0 -28 -7 -71 -15 -96 -9
-25 -13 -49 -10 -54 3 -5 -9 -14 -27 -20 -43 -15 -45 -14 -14 10 26 21 33 56
20 107 -9 30 -22 28 -42 -9 -9 -17 -32 -50 -49 -74 -18 -24 -30 -50 -27 -58 4
-11 -23 -21 -113 -45 -237 -63 -406 -78 -513 -46 -92 27 -119 55 -135 139 -11
65 -58 155 -132 253 l-70 93 -23 156 c-29 197 -25 419 10 547 46 171 91 247
184 310 135 92 294 87 532 -15 55 -23 166 -59 249 -79 136 -34 152 -41 177
-70 32 -39 62 -157 52 -204 -12 -58 -67 -147 -121 -197 -56 -50 -90 -66 -119
-55 -17 7 -17 28 2 167 7 52 -1 59 -53 52 -29 -5 -33 -9 -33 -34 0 -19 -5 -29
-15 -29 -11 0 -15 11 -15 35 0 80 -71 109 -260 103 -117 -3 -131 -5 -185 -33
-46 -23 -66 -42 -90 -79 -29 -48 -30 -53 -30 -170 0 -114 2 -125 31 -186 61
-129 173 -210 289 -210 71 0 113 21 147 75 36 55 58 55 110 -1 101 -110 224
-103 221 13 -1 31 0 33 15 20 10 -8 26 -18 38 -21 12 -4 26 -18 33 -32 19 -43
34 -18 28 50 -5 68 -23 116 -43 116 -7 0 -24 -19 -38 -42 -27 -45 -32 -46 -16
-4 13 36 75 101 155 164 87 69 111 85 62 41 -37 -34 -48 -59 -24 -59 7 0 33
-20 57 -45 31 -32 46 -41 52 -32 13 20 8 140 -6 167 -12 22 -11 27 10 55 39
52 54 100 54 178 l0 73 -51 59 c-63 74 -74 97 -84 160 -19 132 -75 182 -275
250 -52 18 -126 45 -164 59 -39 15 -101 34 -139 42 -89 18 -294 17 -367 -2z
m355 -740 c18 -18 14 -75 -12 -178 -28 -116 -68 -166 -130 -166 -39 0 -95 46
-124 101 -24 48 -24 54 1 29 27 -27 46 -25 76 5 18 19 23 31 19 48 -18 58 -80
62 -107 7 -21 -42 -24 -15 -4 33 17 41 48 69 116 106 63 35 138 42 165 15z
m565 -744 c-11 -16 -26 -33 -32 -36 -7 -4 1 9 16 29 34 44 46 50 16 7z"/>
<path d="M1803 1257 c-23 -17 -42 -40 -43 -49 0 -10 17 -28 38 -42 20 -13 43
-31 51 -40 20 -23 29 -20 36 14 9 40 -3 105 -23 130 -17 20 -17 20 -59 -13z"/>
<path d="M1895 973 c3 -26 7 -65 9 -86 4 -50 14 -57 36 -28 49 67 51 73 21
116 -15 23 -37 41 -49 43 -22 3 -23 1 -17 -45z"/>
</g>
</svg>
